<?xml version="1.0" encoding="UTF-8" standalone="no"?>
<!DOCTYPE svg PUBLIC "-//W3C//DTD SVG 1.1//EN" "http://www.w3.org/Graphics/SVG/1.1/DTD/svg11.dtd">
<svg width="100%" height="100%" viewBox="0 0 256 256" version="1.1" xmlns="http://www.w3.org/2000/svg" xmlns:xlink="http://www.w3.org/1999/xlink" xml:space="preserve" xmlns:serif="http://www.serif.com/" style="fill-rule:evenodd;clip-rule:evenodd;stroke-linejoin:round;stroke-miterlimit:2;">
    <g transform="matrix(1.305,0,0,1.305,-22.0747,-81.52)">
        <path d="M92.019,196.614L40.4,144.996C35.717,140.313 28.113,140.313 23.43,144.996C18.747,149.679 18.747,157.283 23.43,161.966L83.534,222.07C88.217,226.753 95.821,226.753 100.504,222.07L206.57,116.004C211.253,111.321 211.253,103.717 206.57,99.034C201.887,94.351 194.283,94.351 189.6,99.034L92.019,196.614Z" style="fill:rgb(142,239,151);"/>
    </g>
    <path d="M157.316,98.184C158.202,98.652 158.812,99.513 158.962,100.504C159.111,101.494 158.781,102.497 158.073,103.205C155.645,105.641 152.311,108.976 150.36,110.926C149.406,111.88 147.951,112.123 146.739,111.531C131.992,104.416 115.458,100.428 98,100.428C80.547,100.428 64.018,104.413 49.273,111.522C48.062,112.114 46.609,111.871 45.655,110.917C42.667,107.933 36.547,101.814 36.54,101.806C36.54,101.806 36.54,101.806 36.539,101.806C36.16,101.427 35.982,100.891 36.059,100.361C36.135,99.83 36.458,99.367 36.928,99.11C55.116,89.32 75.914,83.762 98,83.762C119.379,83.762 139.551,88.969 157.316,98.184ZM136.667,118.467C137.634,118.875 138.336,119.737 138.537,120.767C138.739,121.797 138.415,122.861 137.672,123.603C135.084,126.202 131.584,129.702 129.655,131.632C128.79,132.496 127.504,132.784 126.353,132.371C117.481,129.24 107.938,127.538 98,127.538C88.067,127.538 78.529,129.238 69.66,132.364C68.51,132.776 67.226,132.488 66.362,131.624C64.431,129.697 60.93,126.197 58.336,123.603C57.592,122.858 57.267,121.792 57.469,120.759C57.671,119.726 58.374,118.862 59.345,118.454C71.271,113.569 84.323,110.871 98,110.871C111.683,110.871 124.74,113.571 136.667,118.467ZM116.169,138.363C117.268,138.64 118.134,139.487 118.435,140.58C118.737,141.674 118.428,142.845 117.626,143.647C114.646,146.64 110.685,150.601 108.776,152.51C108.075,153.21 107.087,153.542 106.106,153.405C103.455,153.045 100.749,152.86 98,152.86C95.257,152.86 92.557,153.045 89.911,153.402C88.93,153.538 87.943,153.206 87.243,152.506C85.332,150.598 81.37,146.637 78.383,143.65C77.578,142.845 77.268,141.67 77.571,140.573C77.873,139.477 78.742,138.627 79.846,138.349C85.668,136.944 91.747,136.193 98,136.193C104.259,136.193 110.343,136.945 116.169,138.363Z" style="fill:white;"/>
</svg>
